# xmcd
#
# Track frame offsets:
#	150
#	14350
#	26833
#	41127
#	56935
#	70757
#	82343
#	97233
#	107269
#	123112
#	136845
#	152505
#	165750
#	178127
#	194138
#	208109
#
# Disc length: 2915 seconds
#
# Revision: 0
# Processed by: cddbd v1.4b42PL1 Copyright (c) Steve Scherf et al.
# Submitted via: audiograbber 1.80
#
DISCID=e10b6110
DTITLE=Perry Como - Prisoner of love
DYEAR=1900
DGENRE=
TTITLE0=Long ago (And far away)
TTITLE1=Temptation
TTITLE2=Till the end of time
TTITLE3=Prisoner of love
TTITLE4=A garden in the rain
TTITLE5=They say it's wonderful
TTITLE6=Sonata
TTITLE7=With a song in my heart
TTITLE8=Blue room 
TTITLE9=Far away places
TTITLE10=Some enchanted evening
TTITLE11=If i'm lucky
TTITLE12=A bushel and a peck
TTITLE13=Bali Ha'i
TTITLE14=If
TTITLE15=I wanna go home
EXTD=
EXTT0=
EXTT1=
EXTT2=
EXTT3=
EXTT4=
EXTT5=
EXTT6=
EXTT7=
EXTT8=
EXTT9=
EXTT10=
EXTT11=
EXTT12=
EXTT13=
EXTT14=
EXTT15=
PLAYORDER=
